<?xml version="1.0" encoding="utf-8"?>
<!-- Generator: Adobe Illustrator 16.0.0, SVG Export Plug-In . SVG Version: 6.00 Build 0)  -->
<!DOCTYPE svg PUBLIC "-//W3C//DTD SVG 1.1//EN" "http://www.w3.org/Graphics/SVG/1.1/DTD/svg11.dtd">
<svg version="1.1" id="Capa_1" xmlns="http://www.w3.org/2000/svg" xmlns:xlink="http://www.w3.org/1999/xlink" x="0px" y="0px"
	 width="72px" height="72px" viewBox="0 0 72 72" enable-background="new 0 0 72 72" xml:space="preserve">
<circle fill="#FFFFFF" cx="36" cy="36" r="36"/>
<path fill="#6D28D9" d="M53.146,35.002c0,8.286-7.677,15.001-17.146,15.001c-1.699,0.004-3.391-0.217-5.031-0.656
	c-1.251,0.637-4.125,1.854-8.959,2.646c-0.43,0.068-0.755-0.377-0.585-0.775c0.759-1.791,1.444-4.18,1.649-6.357
	c-2.625-2.637-4.22-6.088-4.22-9.858C18.854,26.716,26.531,20,36,20S53.146,26.716,53.146,35.002z M29.57,35.002
	c0-1.185-0.959-2.144-2.143-2.144s-2.144,0.959-2.144,2.144s0.96,2.144,2.144,2.144S29.57,36.187,29.57,35.002z M38.144,35.002
	c0-1.185-0.959-2.144-2.144-2.144s-2.144,0.959-2.144,2.144s0.959,2.144,2.144,2.144S38.144,36.187,38.144,35.002z M44.573,37.146
	c1.185,0,2.143-0.959,2.143-2.144s-0.958-2.144-2.143-2.144c-1.186,0-2.144,0.959-2.144,2.144S43.388,37.146,44.573,37.146z"/>
<rect x="-68.833" y="36" fill="#6D28D9" width="14.75" height="14.751"/>
</svg>
