<?xml version="1.0" encoding="utf-8"?>
<!-- Generator: Adobe Illustrator 16.0.0, SVG Export Plug-In . SVG Version: 6.00 Build 0)  -->
<!DOCTYPE svg PUBLIC "-//W3C//DTD SVG 1.1//EN" "http://www.w3.org/Graphics/SVG/1.1/DTD/svg11.dtd">
<svg version="1.1" id="Capa_1" xmlns="http://www.w3.org/2000/svg" xmlns:xlink="http://www.w3.org/1999/xlink" x="0px" y="0px"
	 width="114.667px" height="114.667px" viewBox="0 0 114.667 114.667" enable-background="new 0 0 114.667 114.667"
	 xml:space="preserve">
<circle fill="#FFFFFF" cx="57.333" cy="57.333" r="57.333"/>
<g>
	<path fill="#FACC15" d="M-65.417,154.498c-15.461,0-28-12.539-28-28s12.539-28,28-28c15.469,0,28,12.539,28,28
		S-49.948,154.498-65.417,154.498z M-65.417,158.498c17.672,0,32-14.328,32-32s-14.328-32-32-32c-17.672,0-32,14.328-32,32
		S-83.088,158.498-65.417,158.498z"/>
	<path fill="#FACC15" d="M-60.7,120.662l-9.155,1.148l-0.328,1.523l1.797,0.328c1.18,0.28,1.41,0.707,1.156,1.879l-2.953,13.871
		c-0.777,3.586,0.422,5.272,3.234,5.272c2.18,0,4.711-1.008,5.859-2.392l0.354-1.664c-0.807,0.703-1.971,0.983-2.746,0.983
		c-1.1,0-1.5-0.771-1.217-2.133L-60.7,120.662z M-60.417,112.31c0,2.211-1.789,4-4,4c-2.208,0-4-1.789-4-4c0-2.207,1.793-4,4-4
		C-62.208,108.31-60.417,110.103-60.417,112.31z"/>
</g>
<linearGradient id="SVGID_1_" gradientUnits="userSpaceOnUse" x1="-363.5557" y1="1008.3979" x2="-363.5557" y2="749.1528" gradientTransform="matrix(-4.371139e-008 1 -1 -4.371139e-008 916.4834 331.8902)">
	<stop  offset="0" style="stop-color:#FACC15"/>
	<stop  offset="1" style="stop-color:#6D28D9"/>
</linearGradient>
<rect x="-91.915" y="-46.387" fill="url(#SVGID_1_)" width="259.245" height="29.442"/>
<rect x="-133.917" y="8.833" fill="#FACC15" width="14.75" height="14.75"/>
<rect x="-151" y="7.583" fill="#FBBF24" width="14.75" height="14.75"/>
<rect x="-151" y="22.333" fill="#6D28D9" width="14.75" height="14.75"/>
<text transform="matrix(1 0 0 1 -145.25 97.9995)" font-family="'MyriadPro-Regular'" font-size="12">#fbbf24</text>
<path fill="#6D28D9" d="M57.333,89.333c17.672,0,32-14.328,32-32c0-17.671-14.328-31.998-32-31.998s-32,14.326-32,31.998
	C25.333,75.004,39.662,89.333,57.333,89.333z M61.052,51.687l-3.996,18.818c-0.281,1.359,0.113,2.133,1.215,2.133
	c0.777,0,1.945-0.281,2.742-0.984l-0.352,1.664c-1.148,1.383-3.68,2.391-5.859,2.391c-2.813,0-4.008-1.688-3.23-5.273l2.949-13.871
	c0.258-1.172,0.027-1.598-1.148-1.879l-1.801-0.328l0.328-1.523l9.16-1.146H61.052z M57.333,47.335c-2.207,0-4-1.791-4-4
	s1.793-4,4-4c2.211,0,4,1.791,4,4S59.544,47.335,57.333,47.335z"/>
</svg>
