<?xml version="1.0" encoding="utf-8"?>
<!-- Generator: Adobe Illustrator 16.0.0, SVG Export Plug-In . SVG Version: 6.00 Build 0)  -->
<!DOCTYPE svg PUBLIC "-//W3C//DTD SVG 1.1//EN" "http://www.w3.org/Graphics/SVG/1.1/DTD/svg11.dtd">
<svg version="1.1" id="Capa_1" xmlns="http://www.w3.org/2000/svg" xmlns:xlink="http://www.w3.org/1999/xlink" x="0px" y="0px"
	 width="45.354px" height="45.354px" viewBox="4.823 4.823 45.354 45.354" enable-background="new 4.823 4.823 45.354 45.354"
	 xml:space="preserve">
<circle fill="#1BDD5C" cx="27.5" cy="27.5" r="22.677"/>
<path fill="#FFFFFF" d="M35.533,19.417c-2.132-2.133-4.967-3.31-7.985-3.312c-6.225,0-11.291,5.066-11.293,11.29
	c0,1.992,0.521,3.933,1.507,5.646l-1.601,5.852l5.985-1.571c1.649,0.899,3.508,1.373,5.396,1.373h0.006l0,0
	c6.223,0,11.286-5.066,11.29-11.29C38.839,24.389,37.666,21.551,35.533,19.417 M27.548,36.791h-0.005
	c-1.685,0-3.337-0.453-4.777-1.308l-0.343-0.205l-3.552,0.934l0.948-3.467l-0.223-0.355c-0.938-1.492-1.438-3.22-1.436-4.995
	c0.002-5.172,4.213-9.382,9.388-9.382c2.509,0.001,4.862,0.977,6.635,2.75c1.773,1.775,2.748,4.133,2.747,6.641
	C36.927,32.582,32.717,36.791,27.548,36.791 M32.691,29.762c-0.281-0.144-1.665-0.826-1.927-0.922
	c-0.258-0.088-0.442-0.137-0.635,0.144c-0.185,0.28-0.729,0.919-0.893,1.106c-0.163,0.188-0.331,0.211-0.611,0.072
	c-0.28-0.143-1.19-0.438-2.269-1.401c-0.837-0.746-1.405-1.672-1.567-1.954c-0.166-0.284-0.021-0.436,0.123-0.575
	c0.126-0.128,0.28-0.332,0.421-0.497c0.145-0.164,0.188-0.281,0.284-0.469c0.093-0.189,0.048-0.353-0.024-0.496
	c-0.071-0.142-0.636-1.528-0.869-2.093c-0.23-0.553-0.463-0.476-0.636-0.487c-0.163-0.008-0.352-0.01-0.539-0.01
	c-0.188,0-0.496,0.072-0.752,0.353c-0.26,0.284-0.989,0.965-0.989,2.355c0,1.387,1.012,2.729,1.152,2.917s1.989,3.039,4.819,4.262
	c0.673,0.292,1.197,0.465,1.61,0.593c0.672,0.213,1.284,0.187,1.773,0.113c0.542-0.082,1.669-0.682,1.903-1.344
	c0.239-0.66,0.239-1.221,0.167-1.34C33.163,29.97,32.979,29.902,32.691,29.762"/>
</svg>
