<?xml version="1.0" encoding="utf-8"?>
<!-- Generator: Adobe Illustrator 16.0.0, SVG Export Plug-In . SVG Version: 6.00 Build 0)  -->
<!DOCTYPE svg PUBLIC "-//W3C//DTD SVG 1.1//EN" "http://www.w3.org/Graphics/SVG/1.1/DTD/svg11.dtd">
<svg version="1.1" id="Capa_1" xmlns="http://www.w3.org/2000/svg" xmlns:xlink="http://www.w3.org/1999/xlink" x="0px" y="0px"
	 width="46.598px" height="32px" viewBox="9.465 6.5 46.598 32" enable-background="new 9.465 6.5 46.598 32" xml:space="preserve">
<path fill="#6D28D9" d="M31.112,25.154c0.193,0.405,0.312,0.658,0.434,0.91c2.181,4.474,7.109,6.828,12.014,5.744
	c4.68-1.033,8.11-5.336,8.178-10.255c0.06-4.4-2.665-8.394-6.819-9.999c-4.163-1.607-8.833-0.433-11.862,3.004
	c-2.778,3.152-4.273,6.92-5.163,10.959c-0.922,4.185-1.123,8.399-0.372,12.638c0.013,0.073,0.001,0.15,0.001,0.345
	c-5.636-3.078-10.05-7.313-13.27-12.771c-3.48-5.897-5.067-12.279-4.748-19.181c1.473,0,2.871,0,4.309,0
	c-0.261,8.892,2.573,16.556,8.923,23.086c0.172-1.019,0.306-1.853,0.457-2.685c0.807-4.463,2.118-8.748,4.578-12.611
	c2.58-4.052,6.071-6.818,10.915-7.629c9.146-1.531,17.396,5.499,17.377,14.796c-0.012,6.07-3.541,11.377-9.142,13.75
	c-5.438,2.305-11.961,1.08-16.208-3.007c-0.484-0.464-0.697-0.923-0.589-1.58c0.191-1.16,0.327-2.331,0.521-3.491
	C30.752,26.551,30.93,25.935,31.112,25.154z"/>
</svg>
