<?xml version="1.0" encoding="utf-8"?>
<!-- Generator: Adobe Illustrator 16.0.0, SVG Export Plug-In . SVG Version: 6.00 Build 0)  -->
<!DOCTYPE svg PUBLIC "-//W3C//DTD SVG 1.1//EN" "http://www.w3.org/Graphics/SVG/1.1/DTD/svg11.dtd">
<svg version="1.1" id="Capa_1" xmlns="http://www.w3.org/2000/svg" xmlns:xlink="http://www.w3.org/1999/xlink" x="0px" y="0px"
	 width="65.529px" height="45px" viewBox="-153.734 -210.668 65.529 45" enable-background="new -153.734 -210.668 65.529 45"
	 xml:space="preserve">
<path fill-rule="evenodd" clip-rule="evenodd" fill="#FFFFFF" d="M-123.294-184.436c0.271,0.57,0.438,0.926,0.61,1.28
	c3.068,6.291,9.997,9.602,16.896,8.078c6.581-1.454,11.405-7.503,11.5-14.422c0.084-6.187-3.747-11.804-9.59-14.06
	c-5.855-2.261-12.422-0.609-16.682,4.224c-3.906,4.432-6.009,9.732-7.26,15.412c-1.296,5.884-1.579,11.81-0.523,17.77
	c0.018,0.104,0.002,0.212,0.002,0.486c-7.926-4.329-14.133-10.284-18.661-17.958c-4.894-8.294-7.125-17.268-6.677-26.974
	c2.071,0,4.037,0,6.06,0c-0.368,12.504,3.618,23.281,12.548,32.465c0.243-1.433,0.431-2.605,0.642-3.774
	c1.135-6.278,2.979-12.303,6.438-17.735c3.627-5.698,8.538-9.588,15.348-10.729c12.863-2.154,24.465,7.733,24.438,20.807
	c-0.018,8.536-4.981,16-12.857,19.336c-7.647,3.24-16.819,1.519-22.792-4.228c-0.68-0.654-0.979-1.298-0.828-2.222
	c0.27-1.632,0.46-3.278,0.733-4.91C-123.801-182.472-123.55-183.338-123.294-184.436z"/>
</svg>
