<?xml version="1.0" encoding="utf-8"?>
<!-- Generator: Adobe Illustrator 16.0.0, SVG Export Plug-In . SVG Version: 6.00 Build 0)  -->
<!DOCTYPE svg PUBLIC "-//W3C//DTD SVG 1.1//EN" "http://www.w3.org/Graphics/SVG/1.1/DTD/svg11.dtd">
<svg version="1.1" id="Capa_1" xmlns="http://www.w3.org/2000/svg" xmlns:xlink="http://www.w3.org/1999/xlink" x="0px" y="0px"
	 width="58.248px" height="40px" viewBox="3.641 2.5 58.248 40" enable-background="new 3.641 2.5 58.248 40" xml:space="preserve">
<path fill="#FFFFFF" d="M30.699,25.818c0.241,0.506,0.39,0.822,0.542,1.137c2.726,5.592,8.886,8.535,15.018,7.181
	c5.85-1.292,10.138-6.669,10.222-12.819c0.075-5.5-3.331-10.493-8.524-12.498c-5.203-2.01-11.041-0.542-14.827,3.755
	c-3.472,3.939-5.341,8.65-6.453,13.7c-1.153,5.229-1.404,10.497-0.465,15.795c0.016,0.092,0.001,0.188,0.001,0.432
	c-7.045-3.848-12.562-9.141-16.587-15.963c-4.35-7.372-6.333-15.349-5.935-23.976c1.841,0,3.588,0,5.386,0
	C8.75,13.675,12.293,23.256,20.231,31.418c0.215-1.273,0.383-2.314,0.57-3.354c1.009-5.581,2.647-10.937,5.722-15.765
	c3.225-5.065,7.589-8.522,13.643-9.537C51.6,0.849,61.913,9.637,61.888,21.258c-0.016,7.588-4.427,14.223-11.428,17.188
	c-6.798,2.88-14.95,1.35-20.259-3.758c-0.605-0.582-0.871-1.154-0.736-1.977c0.239-1.449,0.409-2.913,0.651-4.363
	C30.248,27.563,30.471,26.794,30.699,25.818z"/>
</svg>
