<?xml version="1.0" encoding="utf-8"?>
<!-- Generator: Adobe Illustrator 16.0.0, SVG Export Plug-In . SVG Version: 6.00 Build 0)  -->
<!DOCTYPE svg PUBLIC "-//W3C//DTD SVG 1.1//EN" "http://www.w3.org/Graphics/SVG/1.1/DTD/svg11.dtd">
<svg version="1.1" id="Capa_1" xmlns="http://www.w3.org/2000/svg" xmlns:xlink="http://www.w3.org/1999/xlink" x="0px" y="0px"
	 width="72px" height="72px" viewBox="0 0 72 72" enable-background="new 0 0 72 72" xml:space="preserve">
<circle fill="#FFFFFF" cx="36" cy="36" r="36"/>
<linearGradient id="SVGID_1_" gradientUnits="userSpaceOnUse" x1="-251.0903" y1="-365.1084" x2="-208.4233" y2="-365.1084" gradientTransform="matrix(1 0 0 -1 177.4805 -322.2988)">
	<stop  offset="0" style="stop-color:#D946EF"/>
	<stop  offset="1" style="stop-color:#6D28D9"/>
</linearGradient>
<path fill="url(#SVGID_1_)" d="M-33.611,58.81c0,0,2.668,0,2.668-2.666c0-2.668-2.668-10.668-13.334-10.668
	c-10.667,0-13.333,8-13.333,10.668c0,2.666,2.666,2.666,2.666,2.666H-33.611z M-54.885,56.144c-0.02-0.004-0.039-0.006-0.059-0.012
	c0.002-0.703,0.445-2.746,2.026-4.588c1.473-1.728,4.061-3.4,8.641-3.4c4.578,0,7.166,1.68,8.641,3.4
	c1.58,1.842,2.021,3.885,2.025,4.588l-0.02,0.006c-0.017,0-0.027,0.006-0.037,0.006H-54.885z M-44.277,40.143
	c2.945,0,5.334-2.389,5.334-5.333c0-2.945-2.389-5.333-5.334-5.333s-5.334,2.388-5.334,5.333
	C-49.611,37.754-47.222,40.143-44.277,40.143z M-36.277,34.81c0,4.418-3.584,8-8,8s-8-3.582-8-8s3.584-8,8-8
	S-36.277,30.392-36.277,34.81z M-55.114,46.222c-1.066-0.334-2.167-0.555-3.28-0.656c-0.626-0.061-1.254-0.09-1.883-0.09
	c-10.667,0-13.333,8-13.333,10.668c0,1.777,0.888,2.666,2.667,2.666h11.242c-0.395-0.834-0.593-1.744-0.576-2.666
	c0-2.693,1.005-5.445,2.906-7.746C-56.722,47.616-55.967,46.882-55.114,46.222z M-60.49,48.144c-1.578,2.369-2.431,5.15-2.453,8h-8
	c0-0.693,0.438-2.746,2.026-4.6c1.455-1.693,3.979-3.35,8.427-3.398V48.144z M-69.61,36.143c0-4.418,3.582-8,8-8s8,3.582,8,8
	s-3.582,8-8,8S-69.61,40.561-69.61,36.143z M-61.61,30.81c-2.945,0-5.333,2.388-5.333,5.333c0,2.945,2.388,5.333,5.333,5.333
	s5.333-2.388,5.333-5.333C-56.277,33.197-58.665,30.81-61.61,30.81z"/>
<g>
	<path fill="#6D28D9" d="M33.334,52c0,0-2.668,0-2.668-2.668c0-2.666,2.668-10.666,13.334-10.666c10.667,0,13.333,8,13.333,10.666
		C57.333,52,54.667,52,54.667,52H33.334z M44,36c4.417,0,8-3.584,8-8c0-4.418-3.583-8-8-8s-8,3.582-8,8C36,32.416,39.583,36,44,36z"
		/>
	<path fill="#6D28D9" d="M28.576,52c-0.395-0.834-0.594-1.746-0.576-2.668c0-3.613,1.814-7.332,5.162-9.922
		c-1.672-0.512-3.414-0.766-5.162-0.744c-10.666,0-13.334,8-13.334,10.666C14.666,52,17.334,52,17.334,52H28.576z"/>
	<path fill="#6D28D9" d="M26.666,36c3.684,0,6.668-2.984,6.668-6.667s-2.984-6.667-6.668-6.667c-3.682,0-6.666,2.984-6.666,6.667
		S22.984,36,26.666,36z"/>
</g>
<rect x="-46.583" y="2.125" fill="#6D28D9" width="14.75" height="14.751"/>
</svg>
