<?xml version="1.0" encoding="utf-8"?>
<!-- Generator: Adobe Illustrator 16.0.0, SVG Export Plug-In . SVG Version: 6.00 Build 0)  -->
<!DOCTYPE svg PUBLIC "-//W3C//DTD SVG 1.1//EN" "http://www.w3.org/Graphics/SVG/1.1/DTD/svg11.dtd">
<svg version="1.1" id="Capa_1" xmlns="http://www.w3.org/2000/svg" xmlns:xlink="http://www.w3.org/1999/xlink" x="0px" y="0px"
	 width="114.667px" height="114.667px" viewBox="0 0 114.667 114.667" enable-background="new 0 0 114.667 114.667"
	 xml:space="preserve">
<circle fill="#F1F5F9" cx="57.333" cy="57.333" r="57.333"/>
<linearGradient id="SVGID_1_" gradientUnits="userSpaceOnUse" x1="-330.9673" y1="-802.6621" x2="-330.9673" y2="-738.666" gradientTransform="matrix(1 0 0 -1 295.8008 -717.499)">
	<stop  offset="0" style="stop-color:#D946EF"/>
	<stop  offset="1" style="stop-color:#6D28D9"/>
</linearGradient>
<rect x="-49.887" y="21.167" fill="url(#SVGID_1_)" width="29.442" height="63.997"/>
<rect x="-73.75" y="33.083" fill="#FBBF24" width="14.75" height="14.75"/>
<path fill="#6D28D9" d="M89.333,57.333c0,17.672-14.328,32-32,32c-17.671,0-31.998-14.328-31.998-32
	c0-17.671,14.326-31.998,31.998-31.998C75.003,25.335,89.333,39.661,89.333,57.333z M47.319,49.468h3.299
	c0.553,0,0.992-0.453,1.064-1c0.359-2.625,2.16-4.537,5.369-4.537c2.742,0,5.257,1.373,5.257,4.672c0,2.541-1.5,3.709-3.863,5.484
	c-2.691,1.957-4.824,4.239-4.671,7.95l0.012,0.866c0.01,0.548,0.455,0.984,1,0.984h3.242c0.556,0,1-0.453,1-1v-0.423
	c0-2.875,1.095-3.707,4.039-5.944c2.438-1.851,4.978-3.906,4.978-8.22c0-6.045-5.103-8.965-10.688-8.965
	c-5.07,0-10.621,2.359-11.001,9.145c-0.021,0.521,0.385,0.965,0.908,0.986C47.28,49.468,47.3,49.468,47.319,49.468z M56.618,75.239
	c2.441,0,4.113-1.577,4.113-3.711c0-2.202-1.676-3.758-4.113-3.758c-2.336,0-4.035,1.556-4.035,3.758
	c0,2.134,1.699,3.711,4.039,3.711H56.618z"/>
<rect x="-73.75" y="49.958" fill="#6D28D9" width="14.75" height="14.75"/>
<linearGradient id="SVGID_2_" gradientUnits="userSpaceOnUse" x1="-283" y1="21.1665" x2="-168.3345" y2="21.1665">
	<stop  offset="0" style="stop-color:#6D28D9"/>
	<stop  offset="1" style="stop-color:#FACC15"/>
</linearGradient>
<circle fill="url(#SVGID_2_)" cx="-225.667" cy="21.167" r="57.333"/>
</svg>
